<svg width="177" height="51" viewBox="0 0 177 51" fill="none" xmlns="http://www.w3.org/2000/svg">
<g clip-path="url(#clip0_153_812)">
<rect y="0.5" width="50" height="50" rx="5" fill="#406BBF"/>
<path opacity="0.4" d="M15.4779 54.7459L6.6001 25.4391C16.2475 34.4196 23.1664 37.4425 27.234 38.2819C30.4881 38.9533 47.3581 20.0765 54.5249 10.6714V55.5L15.4779 54.7459Z" fill="#132039"/>
<path d="M57.3744 5.66243C59.2417 7.52972 59.2417 10.5572 57.3744 12.4245L31.6668 38.1322L24.9047 31.3701L50.6124 5.66243C52.4797 3.79514 55.5071 3.79514 57.3744 5.66243Z" fill="#9FB5DF"/>
<path d="M8.00056 21.226C9.86785 19.3588 12.8953 19.3588 14.7626 21.226L31.6677 38.1312L28.2867 41.5122C26.4194 43.3795 23.392 43.3795 21.5247 41.5122L8.00056 27.9881C6.13328 26.1208 6.13328 23.0933 8.00056 21.226Z" fill="#D9E1F2"/>
</g>
<path d="M74.016 42.765C70.976 42.765 68.608 41.997 66.912 40.461C65.216 38.893 64.368 36.573 64.368 33.501V10.845H71.856V33.405C71.856 34.493 72.144 35.341 72.72 35.949C73.296 36.525 74.08 36.813 75.072 36.813C76.256 36.813 77.264 36.493 78.096 35.853L80.112 41.133C79.344 41.677 78.416 42.093 77.328 42.381C76.272 42.637 75.168 42.765 74.016 42.765ZM60.384 22.893V17.133H78.288V22.893H60.384ZM95.8065 42.765C93.0545 42.765 90.6065 42.189 88.4625 41.037C86.3505 39.885 84.6705 38.317 83.4225 36.333C82.2065 34.317 81.5985 32.029 81.5985 29.469C81.5985 26.877 82.2065 24.589 83.4225 22.605C84.6705 20.589 86.3505 19.021 88.4625 17.901C90.6065 16.749 93.0545 16.173 95.8065 16.173C98.5265 16.173 100.959 16.749 103.103 17.901C105.247 19.021 106.927 20.573 108.143 22.557C109.359 24.541 109.967 26.845 109.967 29.469C109.967 32.029 109.359 34.317 108.143 36.333C106.927 38.317 105.247 39.885 103.103 41.037C100.959 42.189 98.5265 42.765 95.8065 42.765ZM95.8065 36.621C97.0545 36.621 98.1745 36.333 99.1665 35.757C100.159 35.181 100.943 34.365 101.519 33.309C102.095 32.221 102.383 30.941 102.383 29.469C102.383 27.965 102.095 26.685 101.519 25.629C100.943 24.573 100.159 23.757 99.1665 23.181C98.1745 22.605 97.0545 22.317 95.8065 22.317C94.5585 22.317 93.4385 22.605 92.4465 23.181C91.4545 23.757 90.6545 24.573 90.0465 25.629C89.4705 26.685 89.1825 27.965 89.1825 29.469C89.1825 30.941 89.4705 32.221 90.0465 33.309C90.6545 34.365 91.4545 35.181 92.4465 35.757C93.4385 36.333 94.5585 36.621 95.8065 36.621ZM126.06 42.765C123.628 42.765 121.436 42.221 119.484 41.133C117.532 40.013 115.98 38.461 114.828 36.477C113.708 34.493 113.148 32.157 113.148 29.469C113.148 26.749 113.708 24.397 114.828 22.413C115.98 20.429 117.532 18.893 119.484 17.805C121.436 16.717 123.628 16.173 126.06 16.173C128.236 16.173 130.14 16.653 131.772 17.613C133.404 18.573 134.668 20.029 135.564 21.981C136.46 23.933 136.908 26.429 136.908 29.469C136.908 32.477 136.476 34.973 135.612 36.957C134.748 38.909 133.5 40.365 131.868 41.325C130.268 42.285 128.332 42.765 126.06 42.765ZM127.356 36.621C128.572 36.621 129.676 36.333 130.668 35.757C131.66 35.181 132.444 34.365 133.02 33.309C133.628 32.221 133.932 30.941 133.932 29.469C133.932 27.965 133.628 26.685 133.02 25.629C132.444 24.573 131.66 23.757 130.668 23.181C129.676 22.605 128.572 22.317 127.356 22.317C126.108 22.317 124.988 22.605 123.996 23.181C123.004 23.757 122.204 24.573 121.596 25.629C121.02 26.685 120.732 27.965 120.732 29.469C120.732 30.941 121.02 32.221 121.596 33.309C122.204 34.365 123.004 35.181 123.996 35.757C124.988 36.333 126.108 36.621 127.356 36.621ZM134.124 42.381V37.101L134.268 29.421L133.788 21.789V6.76498H141.276V42.381H134.124ZM160.494 42.765C157.742 42.765 155.294 42.189 153.15 41.037C151.038 39.885 149.358 38.317 148.11 36.333C146.894 34.317 146.286 32.029 146.286 29.469C146.286 26.877 146.894 24.589 148.11 22.605C149.358 20.589 151.038 19.021 153.15 17.901C155.294 16.749 157.742 16.173 160.494 16.173C163.214 16.173 165.646 16.749 167.79 17.901C169.934 19.021 171.614 20.573 172.83 22.557C174.046 24.541 174.654 26.845 174.654 29.469C174.654 32.029 174.046 34.317 172.83 36.333C171.614 38.317 169.934 39.885 167.79 41.037C165.646 42.189 163.214 42.765 160.494 42.765ZM160.494 36.621C161.742 36.621 162.862 36.333 163.854 35.757C164.846 35.181 165.63 34.365 166.206 33.309C166.782 32.221 167.07 30.941 167.07 29.469C167.07 27.965 166.782 26.685 166.206 25.629C165.63 24.573 164.846 23.757 163.854 23.181C162.862 22.605 161.742 22.317 160.494 22.317C159.246 22.317 158.126 22.605 157.134 23.181C156.142 23.757 155.342 24.573 154.734 25.629C154.158 26.685 153.87 27.965 153.87 29.469C153.87 30.941 154.158 32.221 154.734 33.309C155.342 34.365 156.142 35.181 157.134 35.757C158.126 36.333 159.246 36.621 160.494 36.621Z" fill="#406BBF"/>
<defs>
<clipPath id="clip0_153_812">
<rect y="0.5" width="50" height="50" rx="5" fill="white"/>
</clipPath>
</defs>
</svg>
