<svg width="50" height="51" viewBox="0 0 50 51" fill="none" xmlns="http://www.w3.org/2000/svg">
<g clip-path="url(#clip0_153_773)">
<rect y="0.5" width="50" height="50" rx="5" fill="#406BBF"/>
<path opacity="0.4" d="M15.4779 54.7459L6.6001 25.4391C16.2475 34.4196 23.1664 37.4425 27.234 38.2819C30.4881 38.9533 47.3581 20.0765 54.5249 10.6714V55.5L15.4779 54.7459Z" fill="#132039"/>
<path d="M57.3744 5.66243C59.2417 7.52972 59.2417 10.5572 57.3744 12.4245L31.6668 38.1322L24.9047 31.3701L50.6124 5.66243C52.4797 3.79514 55.5071 3.79514 57.3744 5.66243Z" fill="#9FB5DF"/>
<path d="M8.00056 21.226C9.86785 19.3588 12.8953 19.3588 14.7626 21.226L31.6677 38.1312L28.2867 41.5122C26.4194 43.3795 23.392 43.3795 21.5247 41.5122L8.00056 27.9881C6.13328 26.1208 6.13328 23.0933 8.00056 21.226Z" fill="#D9E1F2"/>
</g>
<defs>
<clipPath id="clip0_153_773">
<rect y="0.5" width="50" height="50" rx="5" fill="white"/>
</clipPath>
</defs>
</svg>
